<?xml version="1.0" encoding="UTF-8"?>
<!DOCTYPE svg PUBLIC "-//W3C//DTD SVG 1.1//EN" "http://www.w3.org/Graphics/SVG/1.1/DTD/svg11.dtd">
<!-- Creator: CorelDRAW X7 -->
<svg xmlns="http://www.w3.org/2000/svg" xml:space="preserve" width="1772px" height="1063px" version="1.1" style="shape-rendering:geometricPrecision; text-rendering:geometricPrecision; image-rendering:optimizeQuality; fill-rule:evenodd; clip-rule:evenodd"
viewBox="0 0 1772 1063"
 xmlns:xlink="http://www.w3.org/1999/xlink">
 <defs>
  <style type="text/css">
   <![CDATA[
    .fil0 {fill:#00AEEF;fill-rule:nonzero}
    .fil1 {fill:#2D5A2B;fill-rule:nonzero}
   ]]>
  </style>
 </defs>
 <g id="Layer_x0020_1">
  <metadata id="CorelCorpID_0Corel-Layer"/>
  <path class="fil0" d="M469 820l-7 27 14 0 -7 -27 0 0zm4 -9c0,0 2,0 2,2l17 59c1,3 -2,3 -2,3l-4 0c-2,0 -3,0 -3,-2l-4 -18 -20 0 -4 18c-1,2 -2,2 -3,2l-4 0c0,0 -3,0 -2,-3l16 -59c1,-2 3,-2 3,-2l8 0z"/>
  <path class="fil0" d="M511 844l0 17c0,6 3,7 6,7 5,0 8,-2 8,-7l0 -17c0,-6 -4,-8 -7,-8 -5,0 -7,3 -7,8zm14 -12l0 -18c0,-3 3,-3 3,-3l3 0c2,0 3,1 3,3l0 59c0,1 -2,2 -3,2l-3 0c-2,0 -3,-1 -3,-2l0 -1c-2,3 -5,4 -8,4 -9,0 -14,-5 -14,-16l0 -15c0,-9 4,-16 14,-16 2,0 6,1 8,3z"/>
  <path class="fil0" d="M547 832c-1,-2 1,-3 2,-3l4 0c2,0 3,1 3,3l8 33 8 -33c1,-2 2,-3 3,-3l4 0c2,0 3,1 2,3l-11 40c-1,2 -2,3 -3,3l-6 0c-1,0 -2,-1 -2,-2l-12 -41z"/>
  <path class="fil0" d="M600 844l0 6 14 -3 0 -5c0,-4 -3,-6 -7,-6 -5,0 -7,4 -7,8zm22 -2l0 7c0,2 -1,5 -4,5l-18 3 0 4c0,4 2,7 7,7 5,0 7,-3 7,-7 0,-3 2,-3 2,-3l3 0c2,0 3,1 3,3 0,8 -6,15 -15,15 -9,0 -16,-6 -16,-15l0 -16c0,-9 6,-16 16,-16 9,0 15,5 15,13z"/>
  <path class="fil0" d="M645 829c1,0 2,1 2,3l0 1c1,-2 4,-4 9,-4 8,0 13,5 13,16l0 28c0,1 -1,2 -2,2l-4 0c-1,0 -2,-1 -2,-2l0 -29c0,-4 -2,-8 -7,-8 -5,0 -7,4 -7,8l0 29c0,1 -1,2 -2,2l-4 0c-1,0 -2,-1 -2,-2l0 -41c0,-2 1,-3 2,-3l4 0z"/>
  <path class="fil0" d="M700 875c-9,0 -15,-4 -15,-14l0 -23 -2 0c-2,0 -2,-3 -2,-3l0 -2c0,0 0,-3 2,-3l2 0 0 -15c0,-2 3,-2 3,-2l3 0c0,0 3,0 3,2l0 15 7 0c3,0 3,3 3,3l0 2c0,0 0,3 -3,3l-7 0 0 23c0,5 2,7 6,7l2 0c2,0 2,2 2,2l0 3c0,0 0,2 -2,2l-2 0z"/>
  <path class="fil0" d="M749 873c0,1 -1,2 -3,2l-3 0c-1,0 -2,-1 -2,-2l0 -1c-2,3 -6,4 -9,4 -9,0 -15,-6 -15,-16l0 -28c0,-2 1,-3 3,-3l3 0c2,0 3,1 3,3l0 28c0,6 3,8 7,8 4,0 7,-2 7,-8l0 -28c0,-2 1,-3 3,-3l3 0c2,0 3,1 3,3l0 41z"/>
  <path class="fil0" d="M787 831l0 3c0,1 -1,2 -2,2 -9,0 -10,4 -10,8l0 29c0,1 -1,2 -3,2l-3 0c-1,0 -2,-1 -2,-2l0 -41c0,-2 1,-3 2,-3l3 0c2,0 3,1 3,3l0 1c3,-3 4,-4 10,-4 1,0 2,1 2,2z"/>
  <path class="fil0" d="M804 844l0 6 15 -3 0 -5c0,-4 -3,-6 -7,-6 -6,0 -8,4 -8,8zm23 -2l0 7c0,2 -1,5 -4,5l-19 3 0 4c1,4 3,7 7,7 6,0 8,-3 8,-7 0,-3 2,-3 2,-3l3 0c2,0 3,1 3,3 0,8 -6,15 -16,15 -9,0 -15,-6 -15,-15l0 -16c0,-9 6,-16 16,-16 8,0 15,5 15,13z"/>
  <path class="fil0" d="M873 829c2,0 3,1 3,3l0 41c0,1 -1,2 -3,2l-3 0c-2,0 -3,-1 -3,-2l0 -41c0,-2 1,-3 3,-3l3 0zm3 -15l0 4c0,2 -1,3 -2,3l-5 0c-1,0 -2,-1 -2,-3l0 -4c0,-2 1,-3 2,-3l5 0c1,0 2,1 2,3z"/>
  <path class="fil0" d="M904 868c4,0 6,-2 6,-5 0,-2 -1,-4 -4,-6l-8 -5c-5,-3 -7,-7 -7,-11 0,-6 5,-12 13,-12 6,0 13,2 14,10 0,3 -2,3 -2,3l-3 0c-1,1 -3,0 -3,-2 -1,-3 -4,-4 -6,-4 -2,0 -5,2 -5,5 0,2 1,4 4,5l6 4c5,2 9,6 9,13 0,6 -5,13 -14,13 -12,0 -14,-9 -14,-15 0,-3 2,-3 2,-3l3 0c2,0 3,1 3,3 0,4 1,7 6,7z"/>
  <path class="fil0" d="M963 846l0 13c0,5 1,9 7,9 6,0 7,-4 7,-9l0 -13c0,-5 -1,-10 -7,-10 -5,0 -7,5 -7,10zm7 30c-9,0 -15,-6 -15,-17l0 -13c0,-12 6,-17 15,-17 9,0 16,5 16,17l0 13c0,11 -6,17 -16,17l0 0z"/>
  <path class="fil0" d="M1032 873c0,1 -1,2 -3,2l-3 0c-1,0 -2,-1 -2,-2l0 -1c-2,3 -6,4 -9,4 -9,0 -15,-6 -15,-16l0 -28c0,-2 2,-3 3,-3l3 0c2,0 3,1 3,3l0 28c0,6 3,8 7,8 4,0 8,-2 8,-8l0 -28c0,-2 1,-3 2,-3l3 0c2,0 3,1 3,3l0 41z"/>
  <path class="fil0" d="M1065 875c-9,0 -14,-4 -14,-14l0 -23 -2 0c-3,0 -3,-3 -3,-3l0 -2c0,0 0,-3 3,-3l2 0 0 -15c0,-2 2,-2 2,-2l3 0c0,0 3,0 3,2l0 15 7 0c3,0 3,3 3,3l0 2c0,0 0,3 -3,3l-7 0 0 23c0,5 3,7 6,7l2 0c2,0 2,2 2,2l0 3c0,0 0,2 -2,2l-2 0z"/>
  <path class="fil0" d="M1122 875c-10,0 -15,-4 -15,-14l0 -23 -2 0c-2,0 -2,-3 -2,-3l0 -2c0,0 0,-3 2,-3l2 0 0 -15c0,-2 3,-2 3,-2l3 0c0,0 3,0 3,2l0 15 7 0c2,0 2,3 2,3l0 2c0,0 0,3 -2,3l-7 0 0 23c0,5 2,7 6,7l2 0c2,0 2,2 2,2l0 3c0,0 0,2 -2,2l-2 0z"/>
  <path class="fil0" d="M1146 811c1,0 2,1 2,3l0 19c1,-1 3,-4 9,-4 9,0 14,5 14,16l0 28c0,1 -1,2 -3,2l-3 0c-2,0 -3,-1 -3,-2l0 -29c0,-4 -1,-8 -6,-8 -6,0 -8,4 -8,8l0 29c0,1 -1,2 -2,2l-3 0c-2,0 -3,-1 -3,-2l0 -59c0,-2 1,-3 3,-3l3 0z"/>
  <path class="fil0" d="M1195 844l0 6 14 -3 0 -5c0,-4 -2,-6 -6,-6 -6,0 -8,4 -8,8zm23 -2l0 7c0,2 -1,5 -5,5l-18 3 0 4c0,4 3,7 7,7 6,0 7,-3 7,-7 0,-3 3,-3 3,-3l3 0c2,0 3,1 3,3 0,8 -6,15 -16,15 -9,0 -15,-6 -15,-15l0 -16c0,-9 6,-16 16,-16 8,0 15,5 15,13z"/>
  <path class="fil0" d="M1255 831l0 3c0,1 -1,2 -2,2 -9,0 -10,4 -10,8l0 29c0,1 -1,2 -3,2l-3 0c-1,0 -3,-1 -3,-2l0 -41c0,-2 2,-3 3,-3l3 0c2,0 3,1 3,3l0 1c3,-3 4,-4 10,-4 1,0 2,1 2,2z"/>
  <path class="fil0" d="M1272 844l0 6 14 -3 0 -5c0,-4 -2,-6 -6,-6 -6,0 -8,4 -8,8zm23 -2l0 7c0,2 -1,5 -5,5l-18 3 0 4c0,4 3,7 7,7 6,0 7,-3 7,-7 0,-3 3,-3 3,-3l3 0c2,0 3,1 3,3 0,8 -6,15 -16,15 -9,0 -15,-6 -15,-15l0 -16c0,-9 6,-16 16,-16 8,0 15,5 15,13z"/>
  <path class="fil1" d="M913 571c3,-3 6,-5 8,-7 -8,-7 -8,-8 0,-15 23,-19 46,-37 70,-56 12,-10 24,-20 36,-30 4,-3 7,-3 10,-1 5,4 10,8 15,11 3,1 6,1 9,0 7,-3 13,-7 20,-10 5,-3 8,-3 13,1 27,23 55,46 82,69 30,26 60,51 89,76 4,3 8,6 12,10 0,0 -1,1 -1,1 -63,-42 -126,-84 -189,-127 -12,40 -23,77 -34,116 -3,-1 -4,-2 -5,-4 -13,-14 -25,-29 -38,-43 -5,-6 -5,-6 -11,-1 -4,3 -9,8 -14,9 -5,2 -11,1 -16,1 -1,3 -1,4 -1,7 -7,0 -14,0 -21,0 -5,0 -7,1 -9,7 -3,9 -1,18 3,26 1,2 2,4 2,6 0,0 -1,0 -1,0 -5,-5 -10,-10 -14,-15 -19,-22 -37,-43 -56,-64 -6,-7 -12,-14 -18,-21 -3,-4 -5,-4 -9,-1 -6,4 -12,9 -18,13 -3,3 -5,2 -7,0 -6,-6 -12,-11 -18,-17 -3,-3 -5,-2 -7,1 -11,21 -22,42 -33,63 -5,10 -11,20 -16,30 -2,4 -4,5 -8,2 -15,-7 -29,-15 -44,-22 -4,-2 -10,-1 -15,0 -18,4 -36,9 -54,13 -22,6 -44,11 -66,16 -5,1 -10,3 -15,4 -1,-1 -2,-2 -2,-3 1,0 3,-1 4,-1 34,-21 67,-42 101,-62 25,-16 50,-32 76,-48 20,-12 41,-25 62,-38 4,-3 6,-2 9,1 11,13 23,24 33,37 4,4 7,4 12,2 5,-4 10,-6 15,-10 5,-3 7,-2 10,3 9,13 18,26 27,39 7,10 14,20 22,32z"/>
  <path class="fil1" d="M917 521c-7,-18 -15,-37 -23,-56 -9,5 -19,10 -28,16 -7,4 -15,8 -22,12 -2,1 -6,1 -8,0 -7,-5 -15,-10 -22,-15 -4,-2 -4,-4 -1,-7 17,-17 33,-33 50,-49 2,-2 4,-3 7,-1 8,5 17,10 25,15 3,2 5,2 8,0 10,-8 20,-15 30,-23 3,-2 6,-3 9,0 17,19 33,38 50,57 1,1 2,3 3,4 -8,6 -12,5 -18,-1 -9,-10 -18,-19 -27,-29 -1,-2 -3,-3 -5,-5l-2 1c0,3 -1,8 0,11 3,6 0,11 -4,15 -6,6 -7,13 -9,21 -4,11 -7,22 -10,33 0,1 0,1 -1,2 0,0 -1,0 -2,-1z"/>
  <path class="fil0" d="M637 512c1,1 2,1 2,1 1,-1 2,-1 3,-2 1,-1 3,-3 4,-4 6,-4 12,-7 18,-10 5,-3 10,-5 14,-8 0,0 0,0 0,0 0,0 -1,0 -1,0 -5,-1 -7,-2 -6,-7 1,-4 1,-7 1,-11 0,-9 0,-18 0,-27 0,-5 0,-11 0,-17 0,-3 1,-5 2,-8 1,-3 2,-5 3,-8 1,-1 1,-1 0,-2 -6,-4 -12,-5 -19,-6 0,0 -1,0 -1,1 -3,7 -6,15 -9,23 -2,3 -3,6 -3,10 0,3 -1,6 -3,8 0,1 -1,2 -2,2 -4,4 -5,8 -5,13 -1,6 -2,11 -3,17 0,4 -1,8 -1,11 -1,4 -1,8 0,12 1,4 2,9 6,12z"/>
  <path class="fil0" d="M1302 504c-1,-7 -6,-9 -11,-5 -6,4 -12,5 -18,5 -2,0 -6,2 -7,4 -2,2 -4,3 -7,3 -3,0 -6,1 -9,2 -3,1 -5,3 -8,4 -3,1 -6,1 -10,2 -6,1 -12,2 -19,-1 -3,-2 -6,-4 -10,-5 -3,-1 -4,-2 -2,-5 0,-1 1,-2 2,-3 3,-5 2,-11 -2,-14 -11,-8 -22,-17 -33,-25 -10,-7 -19,-14 -23,-27 -2,-8 -7,-14 -15,-18 -4,-3 -8,-7 -9,-13 -1,-4 -1,-8 -1,-12 -2,-11 -5,-21 -15,-27 -3,-3 -6,-7 -7,-10 -5,-16 -14,-28 -26,-39 -1,-1 -3,-3 -3,-5 -3,-12 -11,-21 -18,-30 -1,-2 -1,-3 -2,-5 4,3 8,5 9,8 2,7 7,10 12,14 3,2 5,2 5,-2 0,-8 1,-15 0,-23 -1,-8 -5,-14 -12,-15 -5,0 -10,0 -15,-1 -3,-1 -7,-2 -11,-3 -2,3 -4,8 -7,12 -1,-3 -3,-6 -3,-9 -1,-3 -3,-3 -5,-2 -2,1 -4,1 -5,2 -5,3 -9,4 -14,3 -9,-2 -19,-3 -28,-4 -4,-1 -8,-2 -12,-4 -3,-1 -6,-2 -10,-3 -5,-2 -10,-2 -14,-5 -16,-10 -34,-1 -36,18 0,6 -5,11 -12,10 -3,-1 -7,-3 -10,-4 -5,-2 -9,-6 -14,-7 -7,-1 -12,-4 -16,-10 -1,-3 -4,-5 -6,-6 -6,-2 -13,-3 -19,-4 -9,-1 -17,-2 -22,-11 0,-1 -2,-2 -3,-2 -3,-1 -5,-1 -8,-1 2,-2 3,-5 5,-6 4,-4 6,-7 5,-13 0,-4 -1,-9 3,-13 1,-1 0,-4 0,-6 -1,0 -3,0 -5,0 -1,0 -1,1 -2,1 -1,-1 -2,-1 -2,-2 -3,-6 -3,-6 -9,-4 -5,2 -11,4 -16,3 -8,0 -16,0 -24,1 -2,0 -5,1 -7,1 -7,0 -15,-1 -22,-1 -8,1 -17,1 -25,4 -8,2 -15,7 -23,11 -5,2 -9,4 -15,3 -3,-1 -6,-1 -9,-2 -8,0 -16,-1 -21,-9 -1,-1 -1,-1 -2,-1 -1,0 -2,1 -2,2 -9,13 -21,23 -35,30 -5,2 -10,5 -13,11 -3,7 -7,14 -9,21 -5,15 -16,24 -32,27 -7,2 -13,5 -17,12 -2,3 -4,6 -7,8 -6,3 -9,7 -11,12 -4,7 -8,12 -14,17 -3,2 -5,6 -7,9 -4,5 -8,11 -12,17 0,1 -1,2 -1,3 -3,7 -2,13 0,19 2,5 2,9 0,13 0,1 0,3 0,4 0,11 -2,22 -6,32 -2,7 -4,15 -8,21 -3,5 -4,9 0,15 1,2 2,6 1,9 -4,8 -2,14 4,21 4,5 9,10 13,15 4,5 8,10 12,14 3,3 5,7 6,11 1,9 5,15 11,21 3,3 5,5 8,7 7,7 14,13 22,20 4,-4 34,-40 35,-42 2,-5 6,-7 10,-8 5,-2 10,-4 15,-7 2,-1 4,-1 5,-2 3,0 5,0 7,-1 4,0 9,-2 13,-4 1,0 1,-2 1,-4 -1,0 -1,-1 -1,-1 0,-5 0,-9 -1,-14 0,-2 0,-4 0,-5 -1,-3 -2,-6 -2,-9 0,-9 -2,-18 -1,-27 0,-4 0,-7 1,-10 2,-5 4,-9 5,-14 1,-4 2,-8 2,-12 1,-10 1,-20 2,-30 0,-3 0,-6 0,-10 0,0 -1,-1 -1,-1 -1,-1 -1,-2 -1,-3 0,-1 0,-2 -1,-3 0,-2 -1,-4 -1,-6 -4,1 -7,2 -10,2 -8,1 -14,-1 -20,-7 -3,-4 -4,-8 -7,-12 0,0 0,-1 0,-1 -4,-3 -3,-7 -1,-10 1,-2 0,-4 0,-5 -1,-4 -3,-8 -3,-12 -1,-2 0,-4 0,-6 1,-6 2,-12 3,-18 0,-2 1,-5 2,-7 2,-7 5,-13 7,-20 1,-3 2,-7 3,-11 0,-2 1,-5 2,-7 0,-3 1,-6 2,-9 1,-7 4,-12 11,-15 2,-1 4,-1 6,-1 3,0 6,0 9,0 2,-1 3,0 4,2 1,1 2,2 3,1 1,0 1,0 2,0 4,3 6,7 8,10 1,3 2,6 2,9 0,3 3,5 6,7 0,0 1,0 1,1 2,0 3,-1 3,-2 0,-1 0,-2 0,-4 0,-1 0,-2 1,-3 4,-3 8,-7 13,-10 2,-2 4,-2 7,-1 0,1 1,1 1,1 0,-1 0,-1 0,-2 -2,-6 -2,-13 3,-18 1,-2 4,-3 5,-4 1,0 1,0 1,0 2,-3 5,-2 7,-2 3,0 6,0 8,1 3,0 5,2 7,4 2,2 3,4 4,6 2,3 4,4 7,4 2,1 5,1 7,1 1,1 1,2 0,3 -1,2 -2,3 -4,3 -2,1 -5,1 -8,1 0,0 -1,0 -2,0 0,2 1,4 1,5 1,1 1,2 1,3 0,1 0,2 -2,2 0,0 -1,1 -1,1 0,2 -1,3 -3,3 1,2 2,3 -1,4 0,0 0,0 0,0 1,4 0,5 -4,5 -2,-1 -4,-1 -6,-2 0,1 0,2 0,2 -1,2 -1,3 1,3 1,1 1,1 2,2 2,1 2,2 0,4 -2,2 -5,5 -8,7 -1,1 -1,1 -1,2 0,3 0,6 0,9 0,3 -1,5 -2,7 0,2 -1,4 -1,5 -1,1 0,2 1,2 3,0 5,0 8,0 5,-1 10,-2 15,-3 2,0 3,0 4,-2 0,-2 2,-4 3,-7 0,0 0,-2 -1,-2 -2,-4 -1,-5 2,-7 2,-1 5,-1 7,0 2,0 2,1 1,2 -2,1 -1,2 1,3 1,1 2,1 4,2 3,3 4,6 4,10 0,1 0,2 0,4 0,1 0,2 -2,2 -1,0 -3,0 -5,-2 0,0 0,0 -1,0 0,0 0,1 0,1 1,7 2,13 3,20 0,6 1,11 2,17 1,6 1,12 2,18 1,2 1,3 1,4 0,2 1,5 2,7 0,1 0,2 0,2 0,2 0,3 0,4 0,5 1,10 2,15 0,6 2,13 2,20 0,2 2,4 2,6 0,1 0,2 0,2 0,1 0,2 0,3 1,7 2,14 3,21 1,6 2,11 2,16 1,2 1,4 1,5l-1 1c-1,-6 -2,-12 -3,-18 -1,-3 -1,-7 -2,-10 0,-5 -1,-9 -2,-13 0,-2 0,-4 -2,-5 0,0 0,0 0,-1 0,-2 1,-3 0,-5 0,-4 -1,-8 -1,-12 -1,-4 -1,-7 -2,-11 0,-4 -1,-8 -2,-12 0,-2 0,-4 -1,-6 -1,-1 -2,-3 -1,-4 0,0 0,-1 0,-1 0,-2 0,-5 -1,-7 0,-5 -1,-10 -2,-16 -1,-3 -1,-7 -2,-10 0,-6 -1,-11 -2,-16 0,-4 -1,-7 -1,-11 -1,-1 -1,-2 -3,-1 -1,1 -1,2 -2,3 -1,0 -1,1 -2,1 -1,0 -2,1 -2,2 0,1 0,2 0,3 0,1 0,2 -1,2 -2,4 -6,5 -10,5 -5,0 -10,2 -15,4 -1,0 -1,0 -1,2 1,2 1,5 -1,8 -2,1 -2,3 -2,4 -1,5 -3,9 -7,10 -3,1 -4,0 -5,-2 0,0 -1,-1 -1,-1 0,0 -1,1 -1,1 0,2 0,4 3,5 0,1 1,1 2,2 0,0 1,1 1,1 2,0 3,1 2,2 0,1 1,2 2,3 2,1 4,3 6,4 7,6 14,13 21,19 4,3 5,6 5,10 -1,5 -2,9 -4,13 -2,6 -4,12 -5,18 0,1 0,3 -1,4 -1,4 -2,8 -3,13 0,2 -1,5 -2,8 0,3 1,6 2,9 0,1 1,2 2,3 5,4 10,7 17,6 3,0 4,1 4,4 0,1 0,1 1,1 2,0 5,0 7,0 0,0 1,1 1,1l-169 93 0 0 -30 16 0 1 271 -149 8 10 38 -35 22 -21 7 4 23 15 43 -30 68 70 26 -21 26 22 35 -19 181 150c2,-4 4,-8 6,-12 6,-15 11,-29 18,-43 4,-9 6,-17 3,-27z"/>
  <path class="fil0" d="M526 590l1 -1c0,0 0,0 0,0 0,0 -1,1 -1,1z"/>
  <polygon class="fil1" points="209,640 241,640 241,685 277,685 277,640 309,640 309,761 277,761 277,713 241,713 241,761 209,761 "/>
  <polygon class="fil1" points="332,640 364,640 364,761 332,761 "/>
  <polygon class="fil1" points="387,640 419,640 419,685 419,685 450,640 485,640 449,689 492,761 457,761 430,714 419,731 419,761 387,761 "/>
  <polygon class="fil1" points="499,640 577,640 577,667 531,667 531,686 571,686 571,712 531,712 531,734 579,734 579,761 499,761 "/>
  <path class="fil1" d="M631 695l11 0c13,0 19,-5 19,-16 0,-5 -1,-9 -5,-11 -3,-2 -8,-3 -14,-3l-11 0 0 30zm33 66l-21 -41 -12 0 0 41 -32 0 0 -121 45 0c7,0 13,1 19,2 6,1 11,3 15,6 4,3 8,7 11,12 2,5 3,11 3,19 0,9 -1,16 -5,22 -3,5 -8,10 -14,13l26 47 -35 0z"/>
  <path class="fil1" d="M720 724c4,3 9,6 14,8 5,2 10,3 14,3 5,0 8,0 10,-2 3,-1 4,-3 4,-6 0,-2 -1,-3 -1,-4 -1,-1 -2,-2 -4,-3 -1,-1 -3,-1 -5,-2 -2,-1 -4,-2 -7,-3l-15 -6c-3,-1 -6,-3 -9,-5 -3,-2 -5,-5 -8,-7 -2,-3 -4,-6 -5,-10 -1,-3 -2,-7 -2,-12 0,-5 1,-10 3,-14 3,-5 6,-9 10,-12 4,-3 8,-6 14,-8 5,-2 11,-3 18,-3 7,0 14,1 21,4 7,2 13,6 19,12l-16 20c-4,-3 -8,-5 -12,-6 -3,-2 -8,-3 -12,-3 -4,0 -7,1 -9,2 -3,2 -4,4 -4,6 0,3 2,5 5,7 3,2 8,3 13,6l15 5c7,3 13,7 17,13 4,5 6,12 6,20 0,5 -1,10 -3,15 -2,5 -5,9 -9,12 -4,4 -9,7 -15,9 -6,2 -12,3 -20,3 -7,0 -15,-2 -23,-4 -8,-3 -16,-8 -22,-13l18 -22z"/>
  <path class="fil1" d="M896 710l-2 -8c-1,-6 -3,-12 -4,-19 -2,-7 -3,-13 -5,-19l0 0c-2,6 -3,12 -4,19 -2,7 -3,13 -5,19l-2 8 22 0zm6 25l-34 0 -6 26 -32 0 37 -121 38 0 37 121 -34 0 -6 -26z"/>
  <polygon class="fil1" points="950,640 1028,640 1028,667 981,667 981,690 1021,690 1021,716 981,716 981,761 950,761 "/>
  <path class="fil1" d="M1077 695l11 0c13,0 20,-5 20,-16 0,-5 -2,-9 -5,-11 -3,-2 -8,-3 -15,-3l-11 0 0 30zm33 66l-21 -41 -12 0 0 41 -32 0 0 -121 46 0c6,0 12,1 18,2 6,1 11,3 15,6 5,3 8,7 11,12 3,5 4,11 4,19 0,9 -2,16 -5,22 -4,5 -9,10 -15,13l27 47 -36 0z"/>
  <polygon class="fil1" points="1158,640 1190,640 1190,761 1158,761 "/>
  <path class="fil1" d="M1264 665c-8,0 -13,3 -17,9 -5,6 -7,15 -7,26 0,12 2,21 7,27 4,7 9,10 17,10 7,0 13,-3 17,-10 4,-6 6,-15 6,-27 0,-11 -2,-20 -6,-26 -4,-6 -10,-9 -17,-9zm63 125c-2,2 -5,3 -9,3 -4,1 -8,2 -14,2 -6,0 -13,-1 -18,-3 -6,-1 -11,-4 -16,-7 -5,-3 -9,-6 -12,-10 -4,-4 -6,-9 -9,-14 -6,-1 -12,-4 -17,-7 -5,-4 -9,-8 -13,-13 -4,-5 -6,-11 -8,-18 -2,-7 -3,-15 -3,-23 0,-10 1,-19 4,-27 3,-7 6,-14 11,-19 5,-5 11,-9 18,-12 7,-3 14,-4 23,-4 8,0 16,1 22,4 7,3 13,7 18,12 5,5 9,12 12,19 2,8 4,17 4,27 0,16 -4,29 -10,39 -7,10 -16,17 -27,21 3,4 6,6 11,7 5,2 10,2 14,2 3,0 5,0 8,0 2,-1 4,-1 6,-2l5 23z"/>
  <path class="fil1" d="M1337 640l32 0 0 66c0,11 1,18 4,23 3,4 7,6 14,6 6,0 11,-2 14,-6 3,-5 4,-12 4,-23l0 -66 31 0 0 62c0,21 -4,36 -12,46 -8,10 -21,15 -37,15 -17,0 -30,-5 -38,-15 -8,-10 -12,-25 -12,-46l0 -62z"/>
  <polygon class="fil1" points="1458,640 1536,640 1536,667 1490,667 1490,686 1529,686 1529,712 1490,712 1490,734 1538,734 1538,761 1458,761 "/>
  <polygon class="fil1" points="430,861 209,861 209,855 430,855 "/>
  <polygon class="fil1" points="1535,861 1314,861 1314,855 1535,855 "/>
 </g>
</svg>
